<svg width="24" height="24" viewBox="0 0 24 24" fill="none" xmlns="http://www.w3.org/2000/svg">
<path d="M22.125 0H1.875C0.839062 0 0 0.839062 0 1.875V22.125C0 23.1609 0.839062 24 1.875 24H22.125C23.1609 24 24 23.1609 24 22.125V1.875C24 0.839062 23.1609 0 22.125 0ZM22.5938 22.125C22.5938 22.3828 22.3828 22.5938 22.125 22.5938H1.875C1.61719 22.5938 1.40625 22.3828 1.40625 22.125V1.875C1.40625 1.61719 1.61719 1.40625 1.875 1.40625H22.125C22.3828 1.40625 22.5938 1.61719 22.5938 1.875V22.125Z" fill="black"/>
<path d="M8.64375 9.53442H6.30469V17.0204H8.64375V9.53442Z" fill="black"/>
<path d="M15.0328 9.46411C13.6922 9.46411 12.8531 10.1954 12.6984 10.711V9.53442H10.0687C10.1015 10.1579 10.0687 17.0204 10.0687 17.0204H12.6984V12.975C12.6984 12.7454 12.689 12.5204 12.7547 12.361C12.9328 11.911 13.3219 11.4422 14.0203 11.4422C14.9344 11.4422 15.3469 12.136 15.3469 13.1485V17.0204H18V12.8579C18 10.5422 16.6969 9.46411 15.0328 9.46411Z" fill="black"/>
<path d="M7.42505 6C6.56255 6 5.99536 6.55781 5.99536 7.29844C5.99536 8.025 6.5438 8.59687 7.39224 8.59687H7.41099C8.29224 8.59687 8.84067 8.02031 8.83599 7.29844C8.81724 6.55781 8.28755 6 7.42505 6Z" fill="black"/>
</svg>
